<svg width="360" height="360" viewBox="0 0 360 360" fill="none" xmlns="http://www.w3.org/2000/svg">
<path d="M162.46 0.0387576C162.079 1.19551 161.362 1.4302 160.355 1.97138C157.733 3.43797 155.436 5.07919 153.229 7.1407C152.62 7.7096 152 8.26048 151.371 8.80714C145.613 13.9114 141.219 20.7058 139.823 28.3839C139.773 28.6444 139.723 28.905 139.672 29.1734C139.245 31.6246 139.17 34.0148 139.183 36.4952C139.186 37.1535 139.183 37.8115 139.18 38.4698C139.176 41.8744 139.652 44.9223 140.636 48.1754C140.705 48.4127 140.774 48.65 140.845 48.8946C141.274 50.3321 141.791 51.6784 142.436 53.0314C142.653 53.5796 142.653 53.5796 142.653 54.4385C142.839 54.4385 143.026 54.4385 143.218 54.4385C143.315 54.6641 143.411 54.8896 143.51 55.1219C144.56 57.5091 145.786 59.6818 147.18 61.8827C147.435 62.3002 147.435 62.3002 147.695 62.726C148.585 64.176 149.517 65.5559 150.572 66.8876C151.016 67.4499 151.449 68.0166 151.879 68.5899C153.154 70.2821 154.364 71.8806 156.049 73.1843C156.518 73.6216 156.518 73.6216 156.912 74.2938C158.293 76.602 160.722 78.4729 162.743 80.2069C162.996 80.435 163.25 80.6631 163.511 80.8981C168.113 85.0016 173.488 88.6803 179.154 91.0868C179.537 91.2579 179.92 91.4295 180.303 91.6013C190.279 96.0301 202.304 99.8256 213.109 96.2405C213.414 96.1393 213.414 96.1393 213.726 96.0361C215.431 95.4546 217.108 94.8516 218.668 93.9321C219.617 93.3774 219.617 93.3774 220.357 93.0933C221.203 92.7315 221.799 92.2224 222.5 91.6237C223.801 90.5142 223.801 90.5142 224.428 90.5142C224.495 90.3529 224.562 90.1916 224.631 90.0255C225.074 89.223 225.627 88.6796 226.267 88.0268C228.1 86.0267 229.38 83.7448 230.653 81.3521C230.808 81.0711 230.808 81.0711 230.966 80.7844C232.234 78.3896 232.441 76.0915 232.403 73.4069C232.401 73.1304 232.399 72.8539 232.397 72.569C232.352 68.7975 232.144 65.3101 230.687 61.8C230.345 60.9644 230.041 60.119 229.733 59.2701C228.872 57.005 227.808 54.8657 226.691 52.7207C226.589 52.5226 226.486 52.3245 226.381 52.1203C224.095 47.7306 221.424 43.5658 218.598 39.5133C217.699 38.2206 216.854 36.9007 216.027 35.5597C215.735 35.0881 215.442 34.6165 215.15 34.1449C215.001 33.9049 214.853 33.665 214.699 33.4178C213.789 31.9499 212.871 30.4867 211.955 29.0226C211.584 28.4287 211.215 27.8339 210.846 27.2387C210.588 26.8257 210.588 26.8257 210.325 26.4043C209.997 25.8071 209.997 25.8071 209.997 25.2345C209.81 25.2345 209.623 25.2345 209.431 25.2345C209.337 24.6675 209.244 24.1006 209.148 23.5166C208.961 23.5166 208.774 23.5166 208.582 23.5166C208.016 22.6576 208.016 22.6576 208.016 21.7987C207.829 21.7987 207.642 21.7987 207.45 21.7987C207.386 21.5388 207.322 21.279 207.256 21.0113C206.886 19.6947 206.346 18.4559 205.819 17.1975C204.811 14.7782 203.984 12.5184 203.979 9.86181C203.979 9.5576 203.979 9.5576 203.978 9.24725C203.977 8.82162 203.978 8.39598 203.981 7.97036C203.984 7.3226 203.981 6.67507 203.977 6.02732C203.978 5.61145 203.978 5.19559 203.979 4.77973C203.98 4.40564 203.981 4.03156 203.981 3.64614C204.142 1.38161 204.142 1.38161 204.903 0.611387C212.687 0.0968675 220.552 1.09012 228.265 2.02507C228.566 2.06147 228.866 2.09788 229.175 2.13539C232.874 2.58687 236.561 3.09152 240.242 3.66792C241.076 3.79765 241.91 3.92157 242.745 4.04493C244.657 4.32849 246.568 4.61653 248.479 4.90611C248.846 4.96152 249.213 5.01692 249.591 5.07401C254.067 5.75222 258.516 6.49773 262.95 7.42814C264.617 7.77677 266.291 8.07878 267.968 8.37767C274.564 9.57739 281.255 12.1 285.332 17.8216C286.064 19.2192 286.146 20.7293 286.289 22.2818C286.323 22.6131 286.358 22.9443 286.393 23.2855C286.652 25.9558 286.786 28.6268 286.912 31.306C287.086 35.0022 287.275 38.5734 288.376 42.127C288.441 42.3413 288.505 42.5555 288.571 42.7763C289.032 44.2932 289.539 45.7893 290.074 47.2807C290.181 47.5863 290.288 47.8919 290.398 48.2067C293.506 56.4297 300.133 62.5444 307.9 66.1775C308.19 66.321 308.48 66.4646 308.779 66.6125C314.857 69.5712 321.585 71.0505 328.291 71.5246C329.405 71.6174 329.405 71.6174 330.254 71.9037C330.228 72.2171 330.228 72.2171 330.202 72.5368C330.12 73.5661 330.045 74.5959 329.971 75.6258C329.944 75.9964 329.917 76.3669 329.889 76.7487C329.275 85.0291 329.275 85.0291 330.82 93.091C330.945 93.4888 331.069 93.8866 331.194 94.2844C332.388 97.9374 334.218 100.629 337.611 102.539C337.998 102.758 337.998 102.758 338.394 102.98C343.508 105.308 350.527 104.297 355.685 102.522C357.109 102.039 358.468 101.591 359.965 101.394C360.166 107.075 359.497 112.753 358.267 118.287C358.17 118.721 358.17 118.721 358.072 119.164C355.085 132.434 349.914 144.025 339.16 152.652C338.393 153.271 337.663 153.923 336.941 154.594C336.479 154.935 336.479 154.935 335.796 155.205C334.994 155.537 334.456 155.951 333.791 156.51C332.916 157.246 332.159 157.668 331.103 158.084C330.549 158.421 330.001 158.768 329.458 159.122C327.521 160.354 325.522 161.417 323.452 162.401C322.937 162.646 322.426 162.898 321.915 163.151C316.775 165.484 310.637 165.85 305.063 165.873C304.749 165.875 304.435 165.876 304.111 165.878C303.451 165.881 302.791 165.883 302.132 165.884C301.131 165.887 300.13 165.895 299.129 165.904C298.484 165.906 297.839 165.908 297.193 165.909C296.899 165.912 296.604 165.916 296.301 165.92C294.474 165.914 292.858 165.66 291.099 165.162C290.072 164.877 289.039 164.718 287.987 164.562C285.494 164.167 283.05 163.607 280.594 163.028C278.887 162.626 277.173 162.261 275.456 161.905C274.517 161.709 273.59 161.501 272.661 161.255C269.197 160.367 265.629 159.872 262.096 159.355C261.887 159.324 261.677 159.293 261.46 159.261C258.754 158.861 256.049 158.485 253.327 158.207C252.266 158.098 251.207 157.969 250.148 157.837C246.362 157.38 242.566 157.016 238.77 156.653C238.571 156.634 238.371 156.615 238.165 156.595C231.693 155.975 225.24 155.553 218.739 155.363C218.45 155.354 218.161 155.346 217.863 155.337C217.333 155.322 216.802 155.309 216.271 155.297C215.031 155.266 213.831 155.176 212.599 155.005C211.226 154.85 209.843 154.824 208.463 154.777C207.946 154.759 207.946 154.759 207.418 154.741C203.564 154.618 199.71 154.595 195.854 154.596C195.051 154.596 194.247 154.594 193.444 154.59C188.302 154.565 183.206 154.712 178.077 155.084C176.067 155.228 174.058 155.304 172.045 155.364C169.677 155.447 167.315 155.552 164.953 155.74C164.705 155.757 164.456 155.773 164.2 155.791C162.305 155.958 160.77 156.47 159.321 157.748C158.393 158.992 157.983 159.918 158.108 161.493C158.462 163.473 159.746 164.7 161.328 165.815C162.111 166.061 162.819 166.138 163.637 166.139C163.862 166.14 164.087 166.14 164.318 166.14C164.551 166.139 164.784 166.138 165.024 166.137C165.249 166.138 165.474 166.139 165.706 166.14C166.874 166.139 168.02 166.091 169.182 165.965C171.37 165.759 173.562 165.713 175.759 165.661C176.118 165.652 176.118 165.652 176.484 165.643C183.975 165.464 191.468 165.432 198.961 165.421C199.151 165.421 199.34 165.421 199.535 165.42C216.723 165.393 233.947 165.769 250.983 168.301C251.608 168.394 252.232 168.485 252.857 168.575C255.207 168.917 257.553 169.279 259.897 169.658C260.883 169.816 261.871 169.968 262.859 170.118C266.211 170.632 269.502 171.277 272.801 172.068C274.427 172.455 276.062 172.755 277.708 173.038C278.532 173.212 279.3 173.419 280.102 173.671C281.628 174.147 283.169 174.475 284.733 174.798C287.092 175.3 289.377 175.897 291.666 176.662C293.074 177.133 294.462 177.551 295.928 177.787C297.309 178.06 298.518 178.543 299.805 179.112C301.091 179.674 302.39 180.198 303.691 180.721C304.158 180.909 304.624 181.098 305.091 181.286C305.803 181.574 306.516 181.861 307.23 182.147C314.432 185.042 321.074 188.938 327.186 193.753C327.679 194.138 328.178 194.512 328.68 194.885C335.823 200.255 341.736 207.421 344.119 216.206C344.238 216.614 344.357 217.021 344.476 217.429C346.866 225.836 347.274 234.514 347.302 243.209C347.304 243.472 347.305 243.735 347.307 244.005C347.32 246.879 347.243 249.668 346.797 252.509C346.662 253.456 346.601 254.387 346.56 255.342C346.44 257.287 346.075 259.143 345.679 261.045C345.389 262.44 345.145 263.823 344.968 265.238C344.634 267.766 344.138 270.386 343.133 272.731C342.645 273.898 342.347 275.051 342.05 276.279C340.881 280.921 339.241 285.396 337.603 289.887C337.412 290.417 337.224 290.948 337.038 291.48C336.555 292.861 336.067 294.159 335.33 295.426C334.834 296.281 334.429 297.107 334.101 298.038C333.645 299.306 333.046 300.46 332.394 301.636C332.272 301.857 332.149 302.078 332.023 302.306C330.619 304.806 329.044 307.184 327.424 309.545C327.3 309.727 327.176 309.908 327.049 310.095C325.41 312.484 323.669 314.781 321.878 317.054C321.475 317.571 321.079 318.092 320.683 318.614C319.346 320.376 317.996 322.025 316.407 323.567C315.823 324.147 315.292 324.752 314.762 325.382C314.046 326.227 313.305 326.905 312.428 327.583C311.954 328.058 311.483 328.536 311.013 329.014C308.053 331.88 304.919 334.494 301.527 336.822C300.932 337.243 300.359 337.679 299.783 338.125C298.298 339.257 296.719 340.224 295.136 341.208C294.123 341.845 293.149 342.473 292.244 343.262C291.587 343.819 291.137 344.132 290.339 344.404C290.149 344.469 289.959 344.534 289.763 344.602C289.118 344.793 288.475 344.943 287.81 345.048C287.717 345.331 287.624 345.615 287.527 345.907C287.062 346.128 287.062 346.128 286.449 346.301C285.441 346.608 284.506 346.971 283.548 347.41C265.425 355.102 244.261 356.637 224.874 357.798C223.878 357.858 222.883 357.92 221.888 357.997C218.804 358.236 215.718 358.363 212.628 358.487C212.334 358.499 212.039 358.511 211.736 358.523C209.488 358.615 207.24 358.703 204.992 358.791C204.662 358.804 204.331 358.817 203.991 358.83C194.152 359.217 184.319 359.505 174.472 359.581C174.269 359.583 174.065 359.585 173.856 359.586C172.931 359.594 172.007 359.6 171.082 359.603C169.246 359.615 167.419 359.666 165.585 359.754C161.225 359.961 156.868 359.983 152.504 359.984C151.853 359.984 151.202 359.985 150.551 359.986C148.241 359.988 145.932 359.99 143.623 359.989C141.762 359.989 139.901 359.991 138.04 359.995C128.226 360.016 118.417 359.977 108.607 359.7C107.979 359.683 107.351 359.666 106.723 359.649C99.9329 359.461 93.1731 359.033 86.4112 358.377C85.0321 358.248 83.6521 358.143 82.2708 358.042C62.3728 356.573 62.3728 356.573 53.4344 352.886C52.0794 352.376 50.7127 352.062 49.3034 351.748C46.9025 351.208 44.6852 350.457 42.4852 349.343C41.8987 349.102 41.3091 348.87 40.7168 348.645C39.1295 348.036 37.5509 347.409 35.9772 346.766C35.9772 346.577 35.9772 346.388 35.9772 346.193C35.6662 346.076 35.6662 346.076 35.349 345.956C34.6017 345.637 33.9739 345.278 33.2957 344.831C32.9434 344.6 32.9434 344.6 32.584 344.364C32.3382 344.2 32.0923 344.036 31.8389 343.867C31.5847 343.698 31.3304 343.528 31.0684 343.354C30.3454 342.871 29.6242 342.385 28.9032 341.899C28.5983 341.696 28.2934 341.493 27.9792 341.284C24.7044 339.008 21.9344 335.943 19.5656 332.736C19.3964 332.517 19.2271 332.298 19.0527 332.072C17.8679 330.523 17.8679 330.523 17.8679 329.873C17.5877 329.779 17.3076 329.684 17.019 329.587C16.3126 328.47 15.7934 327.368 15.2991 326.14C14.8502 325.174 14.2734 324.284 13.7097 323.383C13.3683 322.766 13.1862 322.261 13.0576 321.57C12.8708 321.57 12.6841 321.57 12.4916 321.57C12.3116 321.149 12.3116 321.149 12.128 320.719C11.2898 318.765 10.4397 316.82 9.53826 314.895C7.67822 310.904 6.06534 306.816 4.56881 302.673C4.46777 302.405 4.36673 302.137 4.26264 301.86C1.61666 294.767 0.316183 287.399 0.150895 279.829C0.140088 279.397 0.129271 278.965 0.118461 278.534C0.00133704 273.551 -0.00153578 268.567 0.00457985 263.583C0.00620255 262.256 0.00523022 260.929 0.0036127 259.602C-0.0117867 244.735 -0.0117924 244.735 0.741129 238.685C0.886029 237.492 0.982144 236.297 1.07438 235.099C1.51445 229.428 2.31242 223.784 3.43697 218.211C3.49132 217.936 3.54567 217.661 3.60166 217.377C3.64069 217.18 3.67972 216.982 3.71993 216.779C3.90668 216.779 4.09344 216.779 4.28585 216.779C4.28001 216.413 4.27418 216.047 4.26816 215.67C4.25048 214.56 4.25048 214.56 4.56881 213.916C4.65738 213.411 4.73654 212.904 4.81087 212.397C5.11805 210.471 5.57577 208.606 6.07202 206.722C6.16029 206.384 6.24856 206.045 6.33951 205.697C6.51613 205.021 6.69356 204.347 6.87185 203.672C7.0802 202.883 7.28564 202.093 7.49013 201.303C8.77476 196.408 10.5068 191.703 12.5042 187.063C12.7581 186.468 13.0046 185.871 13.2488 185.272C15.0773 180.836 17.3882 176.61 20.1315 172.687C20.348 172.368 20.5643 172.048 20.7803 171.729C23.9779 167.05 27.7832 162.744 32.0898 159.077C32.4395 158.778 32.7815 158.471 33.1178 158.157C33.291 157.997 33.4643 157.838 33.6428 157.673C33.7931 157.532 33.9433 157.39 34.0982 157.245C34.5624 156.939 34.5624 156.939 35.6942 156.939C36.2308 157.494 36.6715 158.021 37.1267 158.639C37.3282 158.907 37.3282 158.907 37.5337 159.179C39.8867 162.352 41.9468 165.66 43.6171 169.251C43.7234 169.457 43.8296 169.663 43.9391 169.876C44.8371 171.629 45.5251 173.387 46.1283 175.263C46.2238 175.557 46.3192 175.85 46.4176 176.153C48.4141 182.4 49.9359 188.741 50.8856 195.234C50.917 195.446 50.9483 195.658 50.9807 195.877C51.4446 199.05 51.6978 202.116 51.5399 205.326C51.9188 205.303 51.9188 205.303 52.3053 205.278C59.6552 204.822 66.9952 204.509 74.3588 204.415C74.9658 204.407 75.5728 204.399 76.1798 204.391C76.59 204.385 77.0003 204.38 77.4105 204.374C77.6152 204.371 77.8198 204.369 78.0307 204.366C79.2568 204.35 80.483 204.336 81.7092 204.325C82.2984 204.319 82.8876 204.312 83.4768 204.304C84.2048 204.295 84.9329 204.287 85.6609 204.282C87.8641 204.251 90.1529 204.217 92.2859 203.609C92.9405 202.615 93.0614 201.752 93.2288 200.6C93.2618 200.385 93.2947 200.171 93.3287 199.95C93.3996 199.489 93.4696 199.028 93.5389 198.567C93.722 197.354 93.9144 196.144 94.1064 194.933C94.1444 194.692 94.1825 194.452 94.2217 194.204C95.2081 187.994 96.4779 181.943 99.0749 176.189C99.3734 175.519 99.6523 174.844 99.928 174.164C102.645 167.512 106.205 160.69 111.244 155.508C111.431 155.508 111.618 155.508 111.81 155.508C111.81 155.319 111.81 155.13 111.81 154.935C112.905 154.888 113.502 154.989 114.37 155.687C117.688 159.215 119.947 163.744 121.997 168.105C122.261 168.637 122.526 169.168 122.792 169.698C123.758 171.658 124.531 173.676 125.285 175.727C125.664 176.713 125.664 176.713 126.19 177.682C127.104 179.501 127.7 181.46 128.345 183.388C128.415 183.593 128.484 183.798 128.555 184.009C129.589 187.08 130.555 190.153 131.334 193.301C131.404 193.579 131.473 193.856 131.545 194.143C131.986 195.905 132.422 197.668 132.851 199.433C132.962 199.885 133.074 200.336 133.189 200.787C133.625 202.497 133.944 204.226 134.256 205.964C134.507 207.292 134.834 208.545 135.274 209.822C135.953 211.82 136.388 213.855 136.817 215.92C136.901 216.321 136.986 216.722 137.071 217.123C137.244 217.942 137.417 218.761 137.588 219.58C137.83 220.733 138.078 221.885 138.327 223.037C138.478 223.736 138.629 224.436 138.78 225.136C138.848 225.451 138.917 225.767 138.987 226.091C139.317 227.639 139.595 229.172 139.803 230.741C140.034 232.315 140.443 233.582 141.185 234.978C141.325 235.266 141.325 235.266 141.468 235.56C142.686 237.947 144.833 239.094 147.298 239.911C150.341 240.854 153.272 241.667 156.464 241.846C156.779 241.864 156.779 241.864 157.1 241.883C159.362 242.004 161.622 242.021 163.887 242.023C164.339 242.024 164.792 242.025 165.244 242.026C166.692 242.03 168.139 242.029 169.587 242.028C169.834 242.028 170.082 242.028 170.338 242.028C183.12 242.023 195.811 241.58 208.549 240.453C210.502 240.282 212.456 240.142 214.412 240.017C219.765 239.948 219.765 239.948 224.534 237.966C225.714 236.601 226 235.859 225.972 234.086C225.824 233.287 225.653 233.027 225.047 232.508C223.988 231.857 223.268 231.631 222.054 231.629C221.812 231.629 221.57 231.629 221.32 231.628C221.067 231.629 220.815 231.63 220.555 231.632C220.307 231.63 220.06 231.629 219.806 231.628C219.562 231.629 219.317 231.629 219.066 231.629C218.846 231.63 218.626 231.63 218.4 231.63C217.591 231.659 217.591 231.659 216.616 231.803C215.355 231.965 214.096 232.046 212.827 232.113C212.583 232.127 212.338 232.14 212.087 232.154C211.282 232.198 210.477 232.242 209.672 232.285C209.102 232.316 208.532 232.347 207.962 232.378C206.763 232.443 205.565 232.507 204.367 232.571C203.158 232.636 201.949 232.701 200.74 232.768C190.282 233.342 179.858 233.726 169.384 233.725C168.184 233.725 166.985 233.729 165.785 233.733C164.838 233.737 163.89 233.737 162.943 233.737C162.5 233.737 162.058 233.739 161.616 233.741C159.324 233.751 157.06 233.685 154.779 233.435C154.585 233.415 154.391 233.395 154.191 233.375C152.05 233.112 150.432 232.346 148.878 230.808C148.188 229.598 147.853 228.492 147.604 227.122C147.57 226.936 147.535 226.75 147.499 226.559C147.39 225.972 147.285 225.384 147.18 224.796C147.045 224.05 146.909 223.304 146.773 222.559C146.739 222.369 146.704 222.179 146.669 221.984C146.407 220.568 146.101 219.166 145.783 217.763C145.324 215.74 144.956 213.708 144.616 211.661C144.288 209.695 143.929 207.764 143.42 205.836C142.889 203.736 142.524 201.591 142.134 199.46C141.613 196.66 140.978 193.906 140.247 191.154C140.167 190.85 140.086 190.546 140.003 190.233C139.517 188.434 138.971 186.664 138.378 184.898C137.989 183.73 137.652 182.546 137.312 181.362C137.06 180.616 136.785 179.936 136.461 179.223C135.776 177.696 135.273 176.123 134.765 174.53C131.715 165.144 127.794 156.514 121.431 148.922C121.238 148.673 121.046 148.423 120.848 148.165C119.093 146.01 116.363 144.855 113.667 144.549C110.499 144.422 107.631 145.631 105.302 147.777C104.951 148.098 104.951 148.098 104.592 148.426C102.366 150.57 100.574 152.981 98.794 155.508C98.6597 155.696 98.5253 155.884 98.387 156.077C92.8715 163.816 89.3952 172.498 86.6268 181.562C86.563 181.769 86.4992 181.976 86.4335 182.189C86.1231 183.234 85.9434 184.256 85.8133 185.338C85.5148 187.588 85.0705 189.799 84.6184 192.022C84.4164 193.018 84.2365 194.015 84.0801 195.019C81.4928 195.29 78.929 195.344 76.3297 195.333C75.9222 195.333 75.5147 195.332 75.1072 195.332C74.0466 195.331 72.9861 195.328 71.9255 195.325C70.8385 195.322 69.7515 195.321 68.6644 195.319C66.5404 195.316 64.4164 195.311 62.2923 195.305C61.6494 192.053 61.0065 188.8 60.3636 185.547C60.3066 185.262 60.2497 184.978 60.191 184.684C60.0854 184.143 59.9846 183.601 59.8895 183.058C59.6359 181.641 59.2651 180.562 58.6139 179.272C58.4457 178.503 58.305 177.758 58.1894 176.981C58.1189 176.545 58.0478 176.108 57.9761 175.672C57.9411 175.456 57.906 175.241 57.8699 175.019C57.7231 174.159 57.5432 173.307 57.3583 172.454C56.9771 170.695 56.6215 168.933 56.2816 167.166C55.9889 165.658 55.6715 164.159 55.3311 162.661C53.8467 155.979 53.0752 149.257 52.3693 142.451C52.2149 140.98 52.0332 139.524 51.793 138.065C50.9413 132.23 51.2108 126.178 51.2201 120.289C51.2217 119.258 51.2207 118.227 51.2191 117.196C51.204 105.888 51.204 105.888 51.8229 101.68C51.8435 101.108 51.8635 100.535 51.8764 99.9624C51.9557 96.91 52.3502 93.9231 52.7955 90.9079C52.8265 90.6972 52.8574 90.4866 52.8893 90.2696C53.7879 84.1947 53.7879 84.1947 54.6525 81.6384C54.7788 81.0138 54.8961 80.3873 55.0062 79.7595C55.3561 77.8811 55.8308 76.0495 56.3502 74.2122C56.4207 73.9615 56.4912 73.7109 56.5638 73.4527C56.9432 72.1327 57.3656 70.8454 57.8547 69.5631C58.246 68.5054 58.5384 67.4152 58.8515 66.3318C59.2787 65.0133 59.7896 63.7379 60.3116 62.4554C60.4112 62.2096 60.5107 61.9638 60.6133 61.7106C63.7846 53.9589 67.8048 46.1587 73.0779 39.6408C73.5778 39.0185 74.0573 38.3861 74.5303 37.7428C76.1544 35.5369 76.1544 35.5369 77.0946 34.6113C77.7412 33.9418 78.2858 33.2773 78.8454 32.5355C79.5912 31.5503 80.3602 30.6724 81.2506 29.8155C81.6286 29.4345 82.0058 29.0527 82.3824 28.6702C82.7597 28.2885 83.1369 27.9067 83.5142 27.525C83.7371 27.2972 83.96 27.0695 84.1896 26.8349C84.9699 26.0524 85.7661 25.2899 86.5737 24.5366C86.7103 24.4072 86.8469 24.2778 86.9877 24.1446C90.9679 20.433 95.7793 17.3076 100.492 14.6408C100.763 14.4872 101.033 14.3336 101.312 14.1753C105.016 12.087 108.698 10.1587 112.659 8.6282C112.985 8.48131 113.311 8.33441 113.647 8.18307C115 7.61893 116.384 7.30229 117.804 6.95617C118.618 6.70574 119.2 6.47631 119.931 6.07933C121.428 5.2876 123.025 4.88413 124.649 4.44085C124.953 4.35522 125.256 4.26959 125.569 4.18137C127.385 3.67602 129.2 3.25264 131.051 2.9019C131.526 2.80703 132.001 2.71158 132.476 2.61559C133.188 2.47222 133.901 2.32885 134.613 2.18612C135.744 1.95823 136.868 1.72027 137.99 1.45244C139.308 1.1538 140.619 1.01293 141.963 0.897702C142.349 0.863447 142.349 0.863447 142.744 0.8285C143.29 0.780281 143.835 0.732617 144.381 0.685482C145.165 0.61452 145.946 0.532887 146.728 0.448098C151.965 -0.0918269 157.202 -0.0172328 162.46 0.0387576Z" fill="#EB8D12"/>
</svg>
